<svg width="24" height="26" viewBox="0 0 24 26" fill="none" xmlns="http://www.w3.org/2000/svg">
<path d="M23.9705 23.0931L22.0156 11.2859C21.8412 9.7551 20.4458 8.5101 18.905 8.5101H17.249V6.51135C17.249 3.46073 15.0728 0.979328 12.023 0.979328C8.97384 0.979328 6.75087 3.4607 6.75087 6.51133V8.51008H4.95387C3.41299 8.51008 2.01762 9.75508 1.84774 11.2536L0.0364922 23.0699C-0.0332578 23.6924 0.0886172 24.1832 0.397617 24.5297C0.688969 24.8556 1.11309 25.0214 1.65722 25.0214H22.1315C22.9028 25.0214 23.345 24.7116 23.5808 24.4514C23.7968 24.2121 24.0413 23.7917 23.9705 23.0931ZM8.25115 6.51098C8.25115 4.28798 9.801 2.479 12.0233 2.479C14.2455 2.479 15.7493 4.288 15.7493 6.51098V8.50973H8.25115V6.51098ZM22.1993 23.5105L1.75008 23.521C1.62108 23.521 1.49208 23.452 1.52245 23.2705L3.33295 11.4557C3.42295 10.672 4.16508 10.0101 4.9537 10.0101H6.7511V11.7193C6.3041 11.9788 5.99998 12.4573 5.99998 13.0116C5.99998 13.84 6.6716 14.5116 7.49998 14.5116C8.32835 14.5116 8.99998 13.84 8.99998 13.0116C8.99998 12.4581 8.69698 11.9804 8.2511 11.7205V10.0097H15.7488V11.7205C15.3033 11.9804 15 12.4585 15 13.0116C15 13.84 15.6716 14.5116 16.5 14.5116C17.3283 14.5116 18 13.84 18 13.0116C18 12.4573 17.6958 11.9788 17.2488 11.719V10.0097H18.9048C19.6938 10.0097 20.4356 10.672 20.5316 11.4966L22.485 23.2922C22.4943 23.3882 22.419 23.5104 22.1992 23.5104L22.1993 23.5105Z" fill="black"/>
</svg>
